<?xml version="1.0" encoding="UTF-8"?>
<svg version="1.1" xmlns="http://www.w3.org/2000/svg" width="512" height="512">
<path d="M0 0 C0.91620117 0.19335938 1.83240234 0.38671875 2.77636719 0.5859375 C28.83602885 6.26594448 52.56566289 16.68888517 71.59960938 35.62304688 C72.85486452 36.85729357 74.1516557 38.04896029 75.453125 39.234375 C97.76444218 59.98546021 107.98007127 93.52227523 109.08251953 123.22314453 C110.20408476 159.33190186 101.93318885 194.17404868 85.01660156 226.06835938 C83.99553607 228.00848189 83.00699711 229.96250798 82.0234375 231.921875 C71.5871576 252.47622521 58.7605274 271.92636539 44.77734375 290.234375 C44.25881836 290.92007568 43.74029297 291.60577637 43.20605469 292.31225586 C42.21988776 293.61123747 41.22239722 294.90172766 40.21191406 296.18188477 C37.68734582 299.23988007 37.68734582 299.23988007 37.21801758 302.98681641 C38.07618688 305.19614019 39.04581591 306.52467212 40.625 308.28515625 C41.4305835 309.19612061 41.4305835 309.19612061 42.25244141 310.12548828 C42.82913574 310.76470215 43.40583008 311.40391602 44 312.0625 C45.19650055 313.41431396 46.39180839 314.76718451 47.5859375 316.12109375 C48.17213867 316.78351074 48.75833984 317.44592773 49.36230469 318.12841797 C51.50835304 320.58095325 53.5738627 323.09277777 55.625 325.625 C58.86729148 329.62738911 62.16393128 333.57595635 65.5 337.5 C68.87288602 341.46899152 72.21176774 345.4601718 75.5 349.5 C80.12421061 355.1774116 84.8517681 360.76300005 89.59277344 366.34277344 C91.89895444 369.05865766 94.19917592 371.77957773 96.5 374.5 C97.41795418 375.58464775 98.33592293 376.66928316 99.25390625 377.75390625 C101.07544632 379.90651786 102.89565329 382.06024619 104.71484375 384.21484375 C105.62230733 385.28913726 106.5298596 386.36335587 107.4375 387.4375 C107.88722168 387.96972168 108.33694336 388.50194336 108.80029297 389.05029297 C112.22126717 393.09304168 115.67085468 397.11058979 119.125 401.125 C123.4622686 406.16652834 127.69564222 411.28117067 131.88671875 416.4453125 C135.1514958 420.39201156 138.5610345 424.20495633 142 428 C140.5045292 431.59721356 138.47293692 433.63097221 135.5625 436.1875 C134.21865234 437.36892578 134.21865234 437.36892578 132.84765625 438.57421875 C129.18603254 441.69337969 125.45815478 444.72486355 121.71875 447.75 C119.07852271 449.93501569 116.5327028 452.19171391 114 454.5 C109.70008209 458.41891252 105.24080453 462.09170869 100.71875 465.75 C97.22091849 468.64475711 93.88214596 471.69589539 90.52734375 474.75390625 C87.93037607 477.06187598 85.26595987 479.25555863 82.5625 481.4375 C78.75912497 484.51336588 75.09917348 487.68753166 71.5 491 C64.60625272 497.34066727 57.31282194 503.15498462 50 509 C46.40278644 507.5045292 44.36902779 505.47293692 41.8125 502.5625 C40.62333984 501.20898438 40.62333984 501.20898438 39.41015625 499.828125 C36.38746394 496.28123808 33.4466357 492.67355147 30.515625 489.05078125 C27.57074948 485.47943376 24.54279913 481.9878836 21.5 478.5 C17.00479267 473.34435937 12.61376336 468.12488576 8.30859375 462.80859375 C5.58655815 459.49701407 2.79856861 456.2469 0 453 C-4.31939586 447.98689941 -8.55097436 442.9146229 -12.72265625 437.77734375 C-15.28204381 434.65603234 -17.88609305 431.57563556 -20.5 428.5 C-27.41148383 420.35916765 -34.23091358 412.16583533 -40.58984375 403.58203125 C-41.05519531 403.05996094 -41.52054688 402.53789062 -42 402 C-42.66 402 -43.32 402 -44 402 C-45.37491299 403.50787161 -46.67364462 405.08539761 -47.9375 406.6875 C-48.74058594 407.69167969 -49.54367188 408.69585937 -50.37109375 409.73046875 C-50.79890137 410.26591309 -51.22670898 410.80135742 -51.66748047 411.35302734 C-53.89732932 414.10908457 -56.20018076 416.80231324 -58.5 419.5 C-61.87347083 423.46848038 -65.2117825 427.46018993 -68.5 431.5 C-72.24852646 436.1053325 -76.07084246 440.64204444 -79.91625977 445.16625977 C-82.7954532 448.55954109 -85.63204237 451.98267786 -88.4375 455.4375 C-92.39572956 460.30208624 -96.46649061 465.06062178 -100.56054688 469.81054688 C-103.57231987 473.31216351 -106.53051691 476.84777593 -109.4375 480.4375 C-115.12214331 487.43717008 -121.06791289 494.21028561 -127 501 C-127.78761719 501.90234375 -128.57523437 502.8046875 -129.38671875 503.734375 C-130.92250174 505.49133566 -132.45977001 507.24693824 -134 509 C-138.29445018 507.59160505 -140.87046479 505.54145224 -144.125 502.4375 C-147.82566351 498.97990957 -151.54946914 495.67514014 -155.5 492.5 C-159.28460334 489.44651321 -162.92207537 486.29331699 -166.5 483 C-170.9698512 478.88621091 -175.59044893 475.02912703 -180.31640625 471.21484375 C-182.94708557 469.04367173 -185.47942424 466.79758643 -188 464.5 C-191.41739372 461.38541332 -194.9052235 458.4081338 -198.5 455.5 C-202.95342833 451.89722652 -207.20998186 448.13249655 -211.44140625 444.2734375 C-215.07965124 441.0406763 -218.85779763 437.99186896 -222.65234375 434.9453125 C-224.55178936 433.37139584 -226.30080455 431.78331404 -228 430 C-226.31660079 425.94003721 -223.4885361 422.88725632 -220.625 419.625 C-219.53374492 418.36728228 -218.44260218 417.10946708 -217.3515625 415.8515625 C-216.7937207 415.2112207 -216.23587891 414.57087891 -215.66113281 413.91113281 C-213.09130007 410.954541 -210.54612636 407.97700281 -208 405 C-204.96923437 401.46104639 -201.93598981 397.92430175 -198.89453125 394.39453125 C-194.39119302 389.16326589 -189.90970257 383.92510755 -185.5625 378.5625 C-181.96363802 374.12760474 -178.25264112 369.80435749 -174.5 365.5 C-169.98522716 360.32069828 -165.56762247 355.08164386 -161.2421875 349.7421875 C-158.69746317 346.62999852 -156.10381775 343.56273503 -153.5 340.5 C-150.12711398 336.53100848 -146.78823226 332.5398282 -143.5 328.5 C-139.25904934 323.29034298 -134.92778392 318.16173527 -130.578125 313.04296875 C-129.72734375 312.03878906 -128.8765625 311.03460938 -128 310 C-127.51337891 309.47873535 -127.02675781 308.9574707 -126.52539062 308.42041016 C-124.91865094 306.70717791 -124.91865094 306.70717791 -123 304 C-123.34317134 300.8814645 -124.5908234 298.88435912 -126.44921875 296.41015625 C-126.96049316 295.71921875 -127.47176758 295.02828125 -127.99853516 294.31640625 C-128.83457275 293.20072266 -128.83457275 293.20072266 -129.6875 292.0625 C-169.20645578 238.29821113 -203.2796205 176.54552321 -193.75 107.5 C-191.50028497 93.19282355 -187.39454994 79.97507113 -181 67 C-180.51660156 66.00613281 -180.03320312 65.01226562 -179.53515625 63.98828125 C-166.97516754 39.59894029 -145.64232969 22.10097503 -121 11 C-120.39075684 10.72172363 -119.78151367 10.44344727 -119.15380859 10.15673828 C-108.4625065 5.34666834 -97.4469286 2.37999008 -86 0 C-85.21995605 -0.16661133 -84.43991211 -0.33322266 -83.63623047 -0.50488281 C-57.50432474 -5.80033508 -26.04590427 -5.66259912 0 0 Z " fill="#7AC5B0" transform="translate(299,3)"/>
<path d="M0 0 C0 0.33 0 0.66 0 1 C-0.99257812 1.13535156 -1.98515625 1.27070313 -3.0078125 1.41015625 C-16.88817518 3.52204887 -28.38035924 8.55086073 -39 18 C-39.61230469 18.53109375 -40.22460938 19.0621875 -40.85546875 19.609375 C-54.61857662 32.36987237 -62.40819948 52.66506459 -63.23828125 71.171875 C-63.63531689 87.53260508 -60.69241749 102.1973865 -54.171875 117.19140625 C-53 120 -53 120 -53 122 C-51.49373047 121.20335938 -51.49373047 121.20335938 -49.95703125 120.390625 C-41.47691073 115.98225462 -33.2708603 112.47834879 -24 110 C-22.7625 109.608125 -21.525 109.21625 -20.25 108.8125 C7.66469322 101.8338267 37.24974787 108.76681435 62 122 C56.88665004 138.53151005 45.68337627 152.9080988 36 167 C35.52272461 167.69512695 35.04544922 168.39025391 34.55371094 169.10644531 C28.50484322 177.86051424 22.02112289 186.2900638 15.53125 194.71948242 C14.87382812 195.57517822 14.21640625 196.43087402 13.5390625 197.3125 C12.95334473 198.07175781 12.36762695 198.83101562 11.76416016 199.61328125 C11.1819873 200.40089844 10.59981445 201.18851563 10 202 C9.3143182 202.87244165 8.6286364 203.74488331 7.92217636 204.64376259 C5.66336106 208.58779216 5.43453489 211.66985314 5.48101807 216.08651733 C5.47351681 216.88385304 5.46601556 217.68118875 5.458287 218.50268614 C5.43804225 221.16530632 5.446106 223.82707232 5.45410156 226.48974609 C5.44536479 228.4019454 5.43487865 230.3141374 5.42277527 232.22631836 C5.39490745 237.41180624 5.39151076 242.59705566 5.39249516 247.78260756 C5.38936675 253.20389113 5.36375 258.6250672 5.34051514 264.04629517 C5.29994618 274.30964124 5.27961229 284.57292377 5.26654124 294.83633769 C5.25067426 306.52192219 5.21225987 318.20739849 5.17194796 329.89292026 C5.08953672 353.9285772 5.03545222 377.96423117 5 402 C-0.50251051 396.51921687 -0.50251051 396.51921687 -2.83203125 393.80078125 C-3.31599365 393.23697754 -3.79995605 392.67317383 -4.29858398 392.09228516 C-4.79817627 391.50495605 -5.29776855 390.91762695 -5.8125 390.3125 C-6.34238525 389.69165527 -6.87227051 389.07081055 -7.41821289 388.43115234 C-10.96554336 384.25852058 -14.43071689 380.03027121 -17.828125 375.734375 C-20.5881311 372.25954718 -23.38693308 368.8171663 -26.1875 365.375 C-26.74155518 364.6934082 -27.29561035 364.01181641 -27.86645508 363.30957031 C-30.68793097 359.83935351 -33.51227185 356.37150131 -36.33984375 352.90625 C-44.52928533 342.86241204 -52.56456131 332.70979636 -60.515625 322.4765625 C-61.11963135 321.69925781 -61.7236377 320.92195313 -62.34594727 320.12109375 C-63.57116288 318.54356571 -64.79561291 316.96544276 -66.01928711 315.38671875 C-68.96551134 311.59089511 -71.94172915 307.83159807 -75 304.125 C-81.45722243 296.10197041 -87.17449511 287.48538172 -93 279 C-93.47260254 278.31180176 -93.94520508 277.62360352 -94.43212891 276.91455078 C-128.8432749 226.57779778 -155.98550305 168.5000465 -145 106 C-142.55587999 93.2744165 -138.72299025 81.61242093 -133 70 C-132.51660156 69.00613281 -132.03320312 68.01226562 -131.53515625 66.98828125 C-118.97516754 42.59894029 -97.64232969 25.10097503 -73 14 C-72.39075684 13.72172363 -71.78151367 13.44344727 -71.15380859 13.15673828 C-49.10719551 3.23785751 -24.07853323 -0.93140458 0 0 Z " fill="#9DDAA7" transform="translate(251,0)"/>
<path d="M0 0 C2.75905935 2.46856999 5.41660901 5.02802362 8.04101562 7.63867188 C9.29627077 8.87291857 10.59306195 10.06458529 11.89453125 11.25 C34.20584843 32.00108521 44.42147752 65.53790023 45.52392578 95.23876953 C46.64549101 131.34752686 38.3745951 166.18967368 21.45800781 198.08398438 C20.43694232 200.02410689 19.44840336 201.97813298 18.46484375 203.9375 C9.18928597 222.20579722 -2.04952062 239.48789207 -14.11914062 256.0234375 C-15.64027928 258.12867688 -17.12442781 260.25701813 -18.60546875 262.390625 C-19.58940278 263.78676921 -20.57376143 265.18261429 -21.55859375 266.578125 C-22.00364258 267.2285376 -22.44869141 267.8789502 -22.90722656 268.54907227 C-24.18359375 270.33203125 -24.18359375 270.33203125 -26.55859375 273.015625 C-30.55859375 273.015625 -30.55859375 273.015625 -33.07421875 270.5234375 C-33.9979677 269.40587975 -34.90872938 268.27750299 -35.80859375 267.140625 C-36.29602051 266.54419189 -36.78344727 265.94775879 -37.28564453 265.33325195 C-38.72202081 263.57003981 -40.14207682 261.79480751 -41.55859375 260.015625 C-42.23148438 259.18160156 -42.904375 258.34757812 -43.59765625 257.48828125 C-44.85167063 255.92743357 -46.10013305 254.36211324 -47.34375 252.79296875 C-50.1595929 249.26199114 -53.01672614 245.7654755 -55.87109375 242.265625 C-60.43857818 236.65900175 -64.94204088 231.00835162 -69.39160156 225.30786133 C-72.91181569 220.80959784 -76.50707647 216.37622704 -80.12109375 211.953125 C-85.30308213 205.6042206 -90.35099515 199.17158999 -95.31298828 192.64941406 C-97.59269161 189.65925831 -99.88945173 186.68220724 -102.18359375 183.703125 C-103.03001555 182.60291661 -103.87637634 181.50266128 -104.72265625 180.40234375 C-105.32851563 179.61472656 -105.934375 178.82710937 -106.55859375 178.015625 C-103.55903838 172.41351424 -100.02367462 167.59425879 -96.05859375 162.640625 C-89.23253097 153.97739142 -82.78618264 145.11674344 -76.55859375 136.015625 C-75.9857666 135.18095703 -75.41293945 134.34628906 -74.82275391 133.48632812 C-65.44476766 119.77282865 -56.92875028 105.90334118 -49.55859375 91.015625 C-50.22375 90.75523438 -50.88890625 90.49484375 -51.57421875 90.2265625 C-53.78650689 89.32890632 -55.98219497 88.39010325 -58.16796875 87.4296875 C-80.75333992 77.59208953 -107.263169 72.83644183 -131.55859375 79.015625 C-133.20601562 79.4178125 -133.20601562 79.4178125 -134.88671875 79.828125 C-143.52625498 82.11170286 -151.42660878 85.38063811 -159.55859375 89.015625 C-161.22153018 89.69154263 -162.88682404 90.36186031 -164.55859375 91.015625 C-175.19044947 67.69124489 -180.35521392 42.26588065 -171.30859375 17.453125 C-167.32219019 7.69692681 -162.45709786 -0.99508178 -155.55859375 -8.984375 C-154.9759375 -9.66242187 -154.39328125 -10.34046875 -153.79296875 -11.0390625 C-117.6935654 -50.02035099 -35.89439641 -30.91155002 0 0 Z " fill="#5BB09A" transform="translate(362.55859375,30.984375)"/>
<path d="M0 0 C0 34.98 0 69.96 0 106 C1.98 106.495 1.98 106.495 4 107 C3.30140869 107.03440186 2.60281738 107.06880371 1.88305664 107.10424805 C-18.38828173 108.17799472 -34.60999118 111.7050357 -53 120 C-54.66276442 120.67634066 -56.32804848 121.34670042 -58 122 C-68.63185572 98.67561989 -73.79662017 73.25025565 -64.75 48.4375 C-60.76359644 38.68130181 -55.89850411 29.98929322 -49 22 C-48.41734375 21.32195313 -47.8346875 20.64390625 -47.234375 19.9453125 C-34.90300852 6.6295092 -17.92198768 0 0 0 Z " fill="#5BB59B" transform="translate(256,0)"/>
<path d="M0 0 C-5.11334996 16.53151005 -16.31662373 30.9080988 -26 45 C-26.47727539 45.69512695 -26.95455078 46.39025391 -27.44628906 47.10644531 C-33.49515678 55.86051424 -39.97887711 64.2900638 -46.46875 72.71948242 C-50.57564305 78.05521257 -50.57564305 78.05521257 -54.3515625 83.625 C-55.16753906 84.800625 -55.16753906 84.800625 -56 86 C-56.66 86 -57.32 86 -58 86 C-59.32177734 84.50976562 -59.32177734 84.50976562 -60.8359375 82.40625 C-61.39893555 81.63216797 -61.96193359 80.85808594 -62.54199219 80.06054688 C-63.14688477 79.21556641 -63.75177734 78.37058594 -64.375 77.5 C-65.65801605 75.72855934 -66.94188209 73.95773401 -68.2265625 72.1875 C-68.86754883 71.30191406 -69.50853516 70.41632813 -70.16894531 69.50390625 C-71.74016389 67.35531722 -73.33547585 65.23261855 -74.9609375 63.125 C-88.30338026 45.82293972 -100.92164017 27.40748907 -111 8 C-111.88365234 6.40091797 -111.88365234 6.40091797 -112.78515625 4.76953125 C-114 2 -114 2 -113 -1 C-104.60451511 -6.22897975 -95.49653024 -9.40646484 -86 -12 C-84.7625 -12.391875 -83.525 -12.78375 -82.25 -13.1875 C-54.33530678 -20.1661733 -24.75025213 -13.23318565 0 0 Z " fill="#FEF6F6" transform="translate(313,122)"/>
<path d="M0 0 C12.92926136 0 12.92926136 0 19.25 1.1875 C19.97034424 1.3205957 20.69068848 1.45369141 21.43286133 1.59082031 C34.16425624 4.086023 45.60741322 8.9087402 57 15 C51.88665004 31.53151005 40.68337627 45.9080988 31 60 C30.52272461 60.69512695 30.04544922 61.39025391 29.55371094 62.10644531 C23.50484322 70.86051424 17.02112289 79.2900638 10.53125 87.71948242 C6.41481929 93.06934818 6.41481929 93.06934818 2.5859375 98.625 C1.80089844 99.800625 1.80089844 99.800625 1 101 C0.67 101 0.34 101 0 101 C0 67.67 0 34.34 0 0 Z " fill="#EAE0DB" transform="translate(256,107)"/>
</svg>
